<mxfile host="app.diagrams.net" modified="2024-03-22T20:47:13.849Z" agent="Mozilla/5.0 (X11; Linux x86_64) AppleWebKit/537.36 (KHTML, like Gecko) Chrome/122.0.0.0 Safari/537.36" etag="Atb7x3oHqCVjdu2fqqb0" version="23.1.4" type="github">
  <diagram name="PÃ¡gina-1" id="6UGlxOWZnOOWHEqHOkka">
    <mxGraphModel dx="4841" dy="1747" grid="1" gridSize="10" guides="1" tooltips="1" connect="1" arrows="1" fold="1" page="1" pageScale="1" pageWidth="827" pageHeight="1169" math="0" shadow="0">
      <root>
        <mxCell id="0" />
        <mxCell id="1" parent="0" />
        <mxCell id="oEipzknz2UJwrKSdVe1J-1" value="&lt;font size=&quot;1&quot; style=&quot;&quot;&gt;&lt;b style=&quot;font-size: 12px;&quot;&gt;Account exemplo&lt;/b&gt;&lt;/font&gt;" style="sketch=0;outlineConnect=0;html=1;whiteSpace=wrap;fontSize=12;fontStyle=0;shape=mxgraph.aws4.group;grIcon=mxgraph.aws4.group_aws_cloud;verticalAlign=top;align=left;spacingLeft=30;dashed=0;" vertex="1" parent="1">
          <mxGeometry x="-980" y="760" width="2500" height="1520" as="geometry" />
        </mxCell>
        <mxCell id="oEipzknz2UJwrKSdVe1J-2" style="edgeStyle=orthogonalEdgeStyle;rounded=0;orthogonalLoop=1;jettySize=auto;html=1;exitX=0.5;exitY=1;exitDx=0;exitDy=0;entryX=0.5;entryY=0;entryDx=0;entryDy=0;strokeColor=#9999FF;" edge="1" parent="1" source="oEipzknz2UJwrKSdVe1J-3" target="oEipzknz2UJwrKSdVe1J-26">
          <mxGeometry relative="1" as="geometry" />
        </mxCell>
        <mxCell id="oEipzknz2UJwrKSdVe1J-3" value="" style="fillColor=none;strokeColor=#9999FF;dashed=1;verticalAlign=top;fontStyle=0;fontColor=#5A6C86;whiteSpace=wrap;html=1;" vertex="1" parent="1">
          <mxGeometry x="560" y="1080" width="240" height="280" as="geometry" />
        </mxCell>
        <mxCell id="oEipzknz2UJwrKSdVe1J-4" value="Organizations &lt;br&gt;Management &lt;br&gt;Account&lt;br&gt;(aws@exemplo.com.br)" style="sketch=0;outlineConnect=0;fontColor=#232F3E;gradientColor=none;fillColor=#E7157B;strokeColor=none;dashed=0;verticalLabelPosition=bottom;verticalAlign=top;align=center;html=1;fontSize=12;fontStyle=0;aspect=fixed;pointerEvents=1;shape=mxgraph.aws4.organizations_management_account2;" vertex="1" parent="1">
          <mxGeometry x="-40" y="800" width="56" height="56" as="geometry" />
        </mxCell>
        <mxCell id="oEipzknz2UJwrKSdVe1J-5" style="edgeStyle=orthogonalEdgeStyle;rounded=0;orthogonalLoop=1;jettySize=auto;html=1;exitX=0.75;exitY=1;exitDx=0;exitDy=0;exitPerimeter=0;strokeColor=#9999FF;" edge="1" parent="1" source="oEipzknz2UJwrKSdVe1J-7" target="oEipzknz2UJwrKSdVe1J-8">
          <mxGeometry relative="1" as="geometry" />
        </mxCell>
        <mxCell id="oEipzknz2UJwrKSdVe1J-6" style="edgeStyle=orthogonalEdgeStyle;rounded=0;orthogonalLoop=1;jettySize=auto;html=1;exitX=0.25;exitY=1;exitDx=0;exitDy=0;exitPerimeter=0;strokeColor=#9999FF;" edge="1" parent="1" source="oEipzknz2UJwrKSdVe1J-7" target="oEipzknz2UJwrKSdVe1J-13">
          <mxGeometry relative="1" as="geometry" />
        </mxCell>
        <mxCell id="oEipzknz2UJwrKSdVe1J-7" value="Organization&amp;nbsp;&lt;br&gt;exemplo" style="sketch=0;points=[[0,0,0],[0.25,0,0],[0.5,0,0],[0.75,0,0],[1,0,0],[0,1,0],[0.25,1,0],[0.5,1,0],[0.75,1,0],[1,1,0],[0,0.25,0],[0,0.5,0],[0,0.75,0],[1,0.25,0],[1,0.5,0],[1,0.75,0]];points=[[0,0,0],[0.25,0,0],[0.5,0,0],[0.75,0,0],[1,0,0],[0,1,0],[0.25,1,0],[0.5,1,0],[0.75,1,0],[1,1,0],[0,0.25,0],[0,0.5,0],[0,0.75,0],[1,0.25,0],[1,0.5,0],[1,0.75,0]];outlineConnect=0;fontColor=#232F3E;fillColor=#E7157B;strokeColor=#ffffff;dashed=0;verticalLabelPosition=top;verticalAlign=bottom;align=center;html=1;fontSize=12;fontStyle=0;aspect=fixed;shape=mxgraph.aws4.resourceIcon;resIcon=mxgraph.aws4.organizations;labelPosition=center;" vertex="1" parent="1">
          <mxGeometry x="190" y="800" width="56" height="56" as="geometry" />
        </mxCell>
        <mxCell id="oEipzknz2UJwrKSdVe1J-8" value="Organization unit&lt;br&gt;(OU)&lt;br&gt;PROD" style="sketch=0;outlineConnect=0;fontColor=#232F3E;gradientColor=none;fillColor=#E7157B;strokeColor=none;dashed=0;verticalLabelPosition=bottom;verticalAlign=top;align=center;html=1;fontSize=12;fontStyle=0;aspect=fixed;pointerEvents=1;shape=mxgraph.aws4.organizations_organizational_unit2;" vertex="1" parent="1">
          <mxGeometry x="652" y="1080" width="56" height="56" as="geometry" />
        </mxCell>
        <mxCell id="oEipzknz2UJwrKSdVe1J-9" value="" style="sketch=0;outlineConnect=0;fontColor=#232F3E;gradientColor=none;fillColor=#DD344C;strokeColor=none;dashed=0;verticalLabelPosition=bottom;verticalAlign=top;align=center;html=1;fontSize=6;fontStyle=0;aspect=fixed;pointerEvents=1;shape=mxgraph.aws4.permissions;" vertex="1" parent="1">
          <mxGeometry x="772.1800000000001" y="1080" width="27.82" height="35" as="geometry" />
        </mxCell>
        <mxCell id="oEipzknz2UJwrKSdVe1J-10" value="Conta filha&lt;br&gt;Prod&lt;br&gt;aws+prod@exemplo.com.br" style="sketch=0;outlineConnect=0;fontColor=#232F3E;gradientColor=none;fillColor=#E7157B;strokeColor=none;dashed=0;verticalLabelPosition=bottom;verticalAlign=top;align=center;html=1;fontSize=12;fontStyle=0;aspect=fixed;pointerEvents=1;shape=mxgraph.aws4.organizations_account;" vertex="1" parent="1">
          <mxGeometry x="653.4300000000001" y="1230" width="53.13" height="56" as="geometry" />
        </mxCell>
        <mxCell id="oEipzknz2UJwrKSdVe1J-11" style="edgeStyle=orthogonalEdgeStyle;rounded=0;orthogonalLoop=1;jettySize=auto;html=1;exitX=0.5;exitY=1;exitDx=0;exitDy=0;strokeColor=#9999FF;" edge="1" parent="1" source="oEipzknz2UJwrKSdVe1J-12" target="oEipzknz2UJwrKSdVe1J-18">
          <mxGeometry relative="1" as="geometry" />
        </mxCell>
        <mxCell id="oEipzknz2UJwrKSdVe1J-12" value="" style="fillColor=none;strokeColor=#9999FF;dashed=1;verticalAlign=top;fontStyle=0;fontColor=#5A6C86;whiteSpace=wrap;html=1;" vertex="1" parent="1">
          <mxGeometry x="-380" y="1080" width="240" height="280" as="geometry" />
        </mxCell>
        <mxCell id="oEipzknz2UJwrKSdVe1J-13" value="Organization unit&lt;br&gt;(OU)&lt;br&gt;TESTE" style="sketch=0;outlineConnect=0;fontColor=#232F3E;gradientColor=none;fillColor=#E7157B;strokeColor=none;dashed=0;verticalLabelPosition=bottom;verticalAlign=top;align=center;html=1;fontSize=12;fontStyle=0;aspect=fixed;pointerEvents=1;shape=mxgraph.aws4.organizations_organizational_unit2;" vertex="1" parent="1">
          <mxGeometry x="-288" y="1080" width="56" height="56" as="geometry" />
        </mxCell>
        <mxCell id="oEipzknz2UJwrKSdVe1J-14" value="" style="sketch=0;outlineConnect=0;fontColor=#232F3E;gradientColor=none;fillColor=#DD344C;strokeColor=none;dashed=0;verticalLabelPosition=bottom;verticalAlign=top;align=center;html=1;fontSize=6;fontStyle=0;aspect=fixed;pointerEvents=1;shape=mxgraph.aws4.permissions;" vertex="1" parent="1">
          <mxGeometry x="-167.81999999999994" y="1080" width="27.82" height="35" as="geometry" />
        </mxCell>
        <mxCell id="oEipzknz2UJwrKSdVe1J-15" value="Conta filha&lt;br&gt;Prod&lt;br&gt;aws+teste@exemplo.com.br" style="sketch=0;outlineConnect=0;fontColor=#232F3E;gradientColor=none;fillColor=#E7157B;strokeColor=none;dashed=0;verticalLabelPosition=bottom;verticalAlign=top;align=center;html=1;fontSize=12;fontStyle=0;aspect=fixed;pointerEvents=1;shape=mxgraph.aws4.organizations_account;" vertex="1" parent="1">
          <mxGeometry x="-286.56999999999994" y="1230" width="53.13" height="56" as="geometry" />
        </mxCell>
        <mxCell id="oEipzknz2UJwrKSdVe1J-16" style="edgeStyle=orthogonalEdgeStyle;rounded=0;orthogonalLoop=1;jettySize=auto;html=1;entryX=0;entryY=0.5;entryDx=0;entryDy=0;entryPerimeter=0;strokeColor=#9999FF;" edge="1" parent="1" source="oEipzknz2UJwrKSdVe1J-4" target="oEipzknz2UJwrKSdVe1J-7">
          <mxGeometry relative="1" as="geometry" />
        </mxCell>
        <mxCell id="oEipzknz2UJwrKSdVe1J-17" value="" style="sketch=0;outlineConnect=0;fontColor=#232F3E;gradientColor=none;fillColor=#DD344C;strokeColor=none;dashed=0;verticalLabelPosition=bottom;verticalAlign=top;align=center;html=1;fontSize=6;fontStyle=0;aspect=fixed;pointerEvents=1;shape=mxgraph.aws4.permissions;" vertex="1" parent="1">
          <mxGeometry x="260.00000000000006" y="800" width="27.82" height="35" as="geometry" />
        </mxCell>
        <mxCell id="oEipzknz2UJwrKSdVe1J-18" value="Region (OHIO)" style="points=[[0,0],[0.25,0],[0.5,0],[0.75,0],[1,0],[1,0.25],[1,0.5],[1,0.75],[1,1],[0.75,1],[0.5,1],[0.25,1],[0,1],[0,0.75],[0,0.5],[0,0.25]];outlineConnect=0;gradientColor=none;html=1;whiteSpace=wrap;fontSize=12;fontStyle=0;container=1;pointerEvents=0;collapsible=0;recursiveResize=0;shape=mxgraph.aws4.group;grIcon=mxgraph.aws4.group_region;strokeColor=#00A4A6;fillColor=none;verticalAlign=top;align=left;spacingLeft=30;fontColor=#147EBA;dashed=1;" vertex="1" parent="1">
          <mxGeometry x="-827" y="1480" width="1030" height="580" as="geometry" />
        </mxCell>
        <mxCell id="oEipzknz2UJwrKSdVe1J-19" value="VPC - TESTE" style="sketch=0;outlineConnect=0;gradientColor=none;html=1;whiteSpace=wrap;fontSize=12;fontStyle=0;shape=mxgraph.aws4.group;grIcon=mxgraph.aws4.group_vpc;strokeColor=#B6BABF;fillColor=none;verticalAlign=top;align=left;spacingLeft=30;fontColor=#B6BABF;dashed=0;" vertex="1" parent="oEipzknz2UJwrKSdVe1J-18">
          <mxGeometry x="80.00000000000006" y="80" width="870" height="450" as="geometry" />
        </mxCell>
        <mxCell id="oEipzknz2UJwrKSdVe1J-20" value="AZ-A" style="fillColor=none;strokeColor=#147EBA;dashed=1;verticalAlign=top;fontStyle=0;fontColor=#147EBA;whiteSpace=wrap;html=1;" vertex="1" parent="oEipzknz2UJwrKSdVe1J-18">
          <mxGeometry x="100.00000000000006" y="195" width="386.57" height="240" as="geometry" />
        </mxCell>
        <mxCell id="oEipzknz2UJwrKSdVe1J-21" value="AZ-B" style="fillColor=none;strokeColor=#147EBA;dashed=1;verticalAlign=top;fontStyle=0;fontColor=#147EBA;whiteSpace=wrap;html=1;" vertex="1" parent="oEipzknz2UJwrKSdVe1J-18">
          <mxGeometry x="540.0000000000001" y="195" width="386.57" height="240" as="geometry" />
        </mxCell>
        <mxCell id="oEipzknz2UJwrKSdVe1J-22" value="Public subnet" style="points=[[0,0],[0.25,0],[0.5,0],[0.75,0],[1,0],[1,0.25],[1,0.5],[1,0.75],[1,1],[0.75,1],[0.5,1],[0.25,1],[0,1],[0,0.75],[0,0.5],[0,0.25]];outlineConnect=0;gradientColor=none;html=1;whiteSpace=wrap;fontSize=12;fontStyle=0;container=1;pointerEvents=0;collapsible=0;recursiveResize=0;shape=mxgraph.aws4.group;grIcon=mxgraph.aws4.group_security_group;grStroke=0;strokeColor=#7AA116;fillColor=#F2F6E8;verticalAlign=top;align=left;spacingLeft=30;fontColor=#248814;dashed=0;" vertex="1" parent="oEipzknz2UJwrKSdVe1J-18">
          <mxGeometry x="140.78000000000003" y="250" width="130" height="130" as="geometry" />
        </mxCell>
        <mxCell id="oEipzknz2UJwrKSdVe1J-23" value="Private subnet" style="points=[[0,0],[0.25,0],[0.5,0],[0.75,0],[1,0],[1,0.25],[1,0.5],[1,0.75],[1,1],[0.75,1],[0.5,1],[0.25,1],[0,1],[0,0.75],[0,0.5],[0,0.25]];outlineConnect=0;gradientColor=none;html=1;whiteSpace=wrap;fontSize=12;fontStyle=0;container=1;pointerEvents=0;collapsible=0;recursiveResize=0;shape=mxgraph.aws4.group;grIcon=mxgraph.aws4.group_security_group;grStroke=0;strokeColor=#00A4A6;fillColor=#E6F6F7;verticalAlign=top;align=left;spacingLeft=30;fontColor=#147EBA;dashed=0;" vertex="1" parent="oEipzknz2UJwrKSdVe1J-18">
          <mxGeometry x="315.78000000000003" y="250" width="130" height="130" as="geometry" />
        </mxCell>
        <mxCell id="oEipzknz2UJwrKSdVe1J-24" value="Public subnet" style="points=[[0,0],[0.25,0],[0.5,0],[0.75,0],[1,0],[1,0.25],[1,0.5],[1,0.75],[1,1],[0.75,1],[0.5,1],[0.25,1],[0,1],[0,0.75],[0,0.5],[0,0.25]];outlineConnect=0;gradientColor=none;html=1;whiteSpace=wrap;fontSize=12;fontStyle=0;container=1;pointerEvents=0;collapsible=0;recursiveResize=0;shape=mxgraph.aws4.group;grIcon=mxgraph.aws4.group_security_group;grStroke=0;strokeColor=#7AA116;fillColor=#F2F6E8;verticalAlign=top;align=left;spacingLeft=30;fontColor=#248814;dashed=0;" vertex="1" parent="oEipzknz2UJwrKSdVe1J-18">
          <mxGeometry x="580.7900000000001" y="250" width="130" height="130" as="geometry" />
        </mxCell>
        <mxCell id="oEipzknz2UJwrKSdVe1J-25" value="Private subnet" style="points=[[0,0],[0.25,0],[0.5,0],[0.75,0],[1,0],[1,0.25],[1,0.5],[1,0.75],[1,1],[0.75,1],[0.5,1],[0.25,1],[0,1],[0,0.75],[0,0.5],[0,0.25]];outlineConnect=0;gradientColor=none;html=1;whiteSpace=wrap;fontSize=12;fontStyle=0;container=1;pointerEvents=0;collapsible=0;recursiveResize=0;shape=mxgraph.aws4.group;grIcon=mxgraph.aws4.group_security_group;grStroke=0;strokeColor=#00A4A6;fillColor=#E6F6F7;verticalAlign=top;align=left;spacingLeft=30;fontColor=#147EBA;dashed=0;" vertex="1" parent="oEipzknz2UJwrKSdVe1J-18">
          <mxGeometry x="755.7900000000001" y="250" width="130" height="130" as="geometry" />
        </mxCell>
        <mxCell id="oEipzknz2UJwrKSdVe1J-26" value="Region (OHIO)" style="points=[[0,0],[0.25,0],[0.5,0],[0.75,0],[1,0],[1,0.25],[1,0.5],[1,0.75],[1,1],[0.75,1],[0.5,1],[0.25,1],[0,1],[0,0.75],[0,0.5],[0,0.25]];outlineConnect=0;gradientColor=none;html=1;whiteSpace=wrap;fontSize=12;fontStyle=0;container=1;pointerEvents=0;collapsible=0;recursiveResize=0;shape=mxgraph.aws4.group;grIcon=mxgraph.aws4.group_region;strokeColor=#00A4A6;fillColor=none;verticalAlign=top;align=left;spacingLeft=30;fontColor=#147EBA;dashed=1;" vertex="1" parent="1">
          <mxGeometry x="370" y="1480" width="1030" height="580" as="geometry" />
        </mxCell>
        <mxCell id="oEipzknz2UJwrKSdVe1J-27" value="VPC - PROD" style="sketch=0;outlineConnect=0;gradientColor=none;html=1;whiteSpace=wrap;fontSize=12;fontStyle=0;shape=mxgraph.aws4.group;grIcon=mxgraph.aws4.group_vpc;strokeColor=#B6BABF;fillColor=none;verticalAlign=top;align=left;spacingLeft=30;fontColor=#B6BABF;dashed=0;" vertex="1" parent="oEipzknz2UJwrKSdVe1J-26">
          <mxGeometry x="90" y="65" width="870" height="450" as="geometry" />
        </mxCell>
        <mxCell id="oEipzknz2UJwrKSdVe1J-28" value="AZ-A" style="fillColor=none;strokeColor=#147EBA;dashed=1;verticalAlign=top;fontStyle=0;fontColor=#147EBA;whiteSpace=wrap;html=1;" vertex="1" parent="oEipzknz2UJwrKSdVe1J-26">
          <mxGeometry x="110" y="180" width="386.57" height="240" as="geometry" />
        </mxCell>
        <mxCell id="oEipzknz2UJwrKSdVe1J-29" value="AZ-B" style="fillColor=none;strokeColor=#147EBA;dashed=1;verticalAlign=top;fontStyle=0;fontColor=#147EBA;whiteSpace=wrap;html=1;" vertex="1" parent="oEipzknz2UJwrKSdVe1J-26">
          <mxGeometry x="550" y="180" width="386.57" height="240" as="geometry" />
        </mxCell>
        <mxCell id="oEipzknz2UJwrKSdVe1J-30" value="Public subnet" style="points=[[0,0],[0.25,0],[0.5,0],[0.75,0],[1,0],[1,0.25],[1,0.5],[1,0.75],[1,1],[0.75,1],[0.5,1],[0.25,1],[0,1],[0,0.75],[0,0.5],[0,0.25]];outlineConnect=0;gradientColor=none;html=1;whiteSpace=wrap;fontSize=12;fontStyle=0;container=1;pointerEvents=0;collapsible=0;recursiveResize=0;shape=mxgraph.aws4.group;grIcon=mxgraph.aws4.group_security_group;grStroke=0;strokeColor=#7AA116;fillColor=#F2F6E8;verticalAlign=top;align=left;spacingLeft=30;fontColor=#248814;dashed=0;" vertex="1" parent="oEipzknz2UJwrKSdVe1J-26">
          <mxGeometry x="150.78" y="235" width="130" height="130" as="geometry" />
        </mxCell>
        <mxCell id="oEipzknz2UJwrKSdVe1J-31" value="Private subnet" style="points=[[0,0],[0.25,0],[0.5,0],[0.75,0],[1,0],[1,0.25],[1,0.5],[1,0.75],[1,1],[0.75,1],[0.5,1],[0.25,1],[0,1],[0,0.75],[0,0.5],[0,0.25]];outlineConnect=0;gradientColor=none;html=1;whiteSpace=wrap;fontSize=12;fontStyle=0;container=1;pointerEvents=0;collapsible=0;recursiveResize=0;shape=mxgraph.aws4.group;grIcon=mxgraph.aws4.group_security_group;grStroke=0;strokeColor=#00A4A6;fillColor=#E6F6F7;verticalAlign=top;align=left;spacingLeft=30;fontColor=#147EBA;dashed=0;" vertex="1" parent="oEipzknz2UJwrKSdVe1J-26">
          <mxGeometry x="325.78" y="235" width="130" height="130" as="geometry" />
        </mxCell>
        <mxCell id="oEipzknz2UJwrKSdVe1J-32" value="Public subnet" style="points=[[0,0],[0.25,0],[0.5,0],[0.75,0],[1,0],[1,0.25],[1,0.5],[1,0.75],[1,1],[0.75,1],[0.5,1],[0.25,1],[0,1],[0,0.75],[0,0.5],[0,0.25]];outlineConnect=0;gradientColor=none;html=1;whiteSpace=wrap;fontSize=12;fontStyle=0;container=1;pointerEvents=0;collapsible=0;recursiveResize=0;shape=mxgraph.aws4.group;grIcon=mxgraph.aws4.group_security_group;grStroke=0;strokeColor=#7AA116;fillColor=#F2F6E8;verticalAlign=top;align=left;spacingLeft=30;fontColor=#248814;dashed=0;" vertex="1" parent="oEipzknz2UJwrKSdVe1J-26">
          <mxGeometry x="590.79" y="235" width="130" height="130" as="geometry" />
        </mxCell>
        <mxCell id="oEipzknz2UJwrKSdVe1J-33" value="Private subnet" style="points=[[0,0],[0.25,0],[0.5,0],[0.75,0],[1,0],[1,0.25],[1,0.5],[1,0.75],[1,1],[0.75,1],[0.5,1],[0.25,1],[0,1],[0,0.75],[0,0.5],[0,0.25]];outlineConnect=0;gradientColor=none;html=1;whiteSpace=wrap;fontSize=12;fontStyle=0;container=1;pointerEvents=0;collapsible=0;recursiveResize=0;shape=mxgraph.aws4.group;grIcon=mxgraph.aws4.group_security_group;grStroke=0;strokeColor=#00A4A6;fillColor=#E6F6F7;verticalAlign=top;align=left;spacingLeft=30;fontColor=#147EBA;dashed=0;" vertex="1" parent="oEipzknz2UJwrKSdVe1J-26">
          <mxGeometry x="765.79" y="235" width="130" height="130" as="geometry" />
        </mxCell>
      </root>
    </mxGraphModel>
  </diagram>
</mxfile>
